# xmcd
#
# Track frame offsets:
#	150
#	12416
#	24115
#	36986
#	51185
#	67735
#	76999
#	90265
#	104012
#	118665
#	132151
#	146992
#	158590
#
# Disc length: 2333 seconds
# Revision: 0
# Processed by: cddbd v1.5.2PL0 Copyright (c) Steve Scherf et al.
# Submitted via: dBpowerAMP V12.0
#
DISCID=a1091b0d
DTITLE=Crowe Brothers - Bridging the Gap
DYEAR=2011
DGENRE=Country
TTITLE0=He Could Pick the Hound
TTITLE1=Snow Woman
TTITLE2=Eighteen Wheels
TTITLE3=If I Had My Life To Live Over
TTITLE4=Wayward Heart
TTITLE5=Southern Moon
TTITLE6=I Knew It Wasn't You (The Telephone Song)
TTITLE7=Trusting In My Lord
TTITLE8=Grandma's Little Boardside Cabin
TTITLE9=If It Takes More Than Love To Hold You
TTITLE10=The Winds Are Blowing In Maggie Valley
TTITLE11=I'm Going Back To Old Virginia
TTITLE12=God Has Been So Good To Me
EXTD=
EXTT0=
EXTT1=
EXTT2=
EXTT3=
EXTT4=
EXTT5=
EXTT6=
EXTT7=
EXTT8=
EXTT9=
EXTT10=
EXTT11=
EXTT12=
PLAYORDER=
